<svg xmlns="http://www.w3.org/2000/svg" version="1.1" xmlns:xlink="http://www.w3.org/1999/xlink" xmlns:svgjs="http://svgjs.dev/svgjs" width="1500" height="416" viewBox="0 0 1500 416"><g transform="matrix(1,0,0,1,-0.9090909090909918,0.3230397681235502)"><svg viewBox="0 0 396 110" data-background-color="#ffffff" preserveAspectRatio="xMidYMid meet" height="416" width="1500" xmlns="http://www.w3.org/2000/svg" xmlns:xlink="http://www.w3.org/1999/xlink"><g id="tight-bounds" transform="matrix(1,0,0,1,0.2400000000000091,-0.08541916945574712)"><svg viewBox="0 0 395.52 110.17083833891152" height="110.17083833891152" width="395.52"><g><svg viewBox="0 0 686.4519319115635 191.2090028773826" height="110.17083833891152" width="395.52"><g><rect width="8.219071948054513" height="139.04851511705462" x="417.0358951519751" y="26.08024388016399" fill="#35185a" opacity="1" stroke-width="0" stroke="transparent" fill-opacity="1" class="rect-qz-0" data-fill-palette-color="primary" rx="1%" id="qz-0" data-palette-color="#35185a"></rect></g><g transform="matrix(1,0,0,1,0,26.426135708813376)"><svg viewBox="0 0 395.52 138.35673145975585" height="138.35673145975585" width="395.52"><g id="textblocktransform"><svg viewBox="0 0 395.52 138.35673145975585" height="138.35673145975585" width="395.52" id="textblock"><g><svg viewBox="0 0 395.52 91.13969718215812" height="91.13969718215812" width="395.52"><g transform="matrix(1,0,0,1,0,0)"><svg width="395.52" viewBox="2.15 -32.102343791655 138.23 32.352343791655" height="91.13969718215812" data-palette-color="#35185a"><g class="wordmark-text-0" data-fill-palette-color="primary" id="text-0"><path d="M26.05-9.05Q26.05-6.7 24.98-5.03 23.9-3.35 21.45-1.95L21.45-1.95Q19.8-0.95 17.6-0.45 15.4 0.05 13.15 0.05L13.15 0.05Q10.85 0.05 7.45-1.45L7.45-1.45Q5-2.65 3.58-4.3 2.15-5.95 2.15-7.9L2.15-7.9Q2.15-9.25 2.75-9.88 3.35-10.5 4.7-10.5L4.7-10.5Q5.4-10.5 6.15-9.93 6.9-9.35 7.05-8.8L7.05-8.8Q7.75-6.75 9.5-5.68 11.25-4.6 13.85-4.6L13.85-4.6Q16.85-4.6 18.88-5.7 20.9-6.8 20.9-8.65L20.9-8.65Q20.9-10.45 18.7-11.85 16.5-13.25 14.2-13.8L14.2-13.8Q10.9-14.7 8.35-15.95L8.35-15.95Q5.7-17.25 4.4-19.15 3.1-21.05 3.1-23.15L3.1-23.15Q3.1-25.1 4.45-27.13 5.8-29.15 7.65-30.05L7.65-30.05Q8.65-30.55 11.08-31.13 13.5-31.7 14.6-31.7L14.6-31.7Q16.05-31.7 17.8-31.35 19.55-31 20.65-30.35L20.65-30.35Q22.85-29.1 23.9-28.1 24.95-27.1 24.95-25.6L24.95-25.6Q24.95-24.7 24.28-24 23.6-23.3 21.95-23.3L21.95-23.3Q21.55-23.3 21.15-23.65 20.75-24 20.15-24.7L20.15-24.7Q19.35-25.75 18.6-26.1L18.6-26.1Q17.85-26.35 16.43-26.65 15-26.95 13.9-26.95L13.9-26.95Q12.7-26.95 11.4-26.45 10.1-25.95 9.22-25.03 8.35-24.1 8.35-22.9L8.35-22.9Q8.35-21.9 9.28-21.18 10.2-20.45 11.5-20L11.5-20Q13-19.4 14.75-18.95L14.75-18.95Q17.05-18.25 18.53-17.68 20-17.1 21.4-16.25L21.4-16.25Q23.85-14.8 24.95-13.28 26.05-11.75 26.05-9.05L26.05-9.05ZM53.5-2.4Q53.5-1.3 52.32-0.55 51.15 0.2 50.15 0.2L50.15 0.2Q48.25 0.2 47.12-0.28 46-0.75 45.05-2.05L45.05-2.05Q43.75-0.9 41.5-0.33 39.25 0.25 37.35 0.25L37.35 0.25Q34.25 0.25 32.25-1.43 30.25-3.1 30.25-6.35L30.25-6.35Q30.25-7.75 31-8.93 31.75-10.1 33.05-11L33.05-11Q34.5-11.95 36.35-12.48 38.2-13 40.2-13L40.2-13Q41.25-13 42.7-12.6 44.15-12.2 44.95-11.75L44.95-11.75 44.95-12.55Q44.95-15.25 43.65-16.28 42.35-17.3 39.45-17.3L39.45-17.3Q38.6-17.3 37.77-16.95 36.95-16.6 35.9-16L35.9-16Q34.5-15.25 33.25-15.25L33.25-15.25Q32.8-15.25 32.4-15.88 32-16.5 32-17L32-17Q32-18.45 33.37-19.5 34.75-20.55 36.65-21.08 38.55-21.6 40.05-21.6L40.05-21.6Q41.55-21.6 43.5-21.03 45.45-20.45 46.7-19.45L46.7-19.45Q48.2-18.15 49.02-16.43 49.85-14.7 49.85-12.65L49.85-12.65Q49.85-12 49.75-10.7L49.75-10.7Q49.65-9.3 49.65-8.3L49.65-8.3Q49.65-7.85 49.55-6.95L49.55-6.95Q49.45-5.85 49.45-5.2L49.45-5.2Q49.45-4.6 49.9-4.17 50.35-3.75 50.95-3.75L50.95-3.75 52.35-3.8Q52.9-3.8 53.2-3.4 53.5-3 53.5-2.4L53.5-2.4ZM37.4-3.7Q39.55-3.7 41-4.15 42.45-4.6 44.5-5.8L44.5-5.8Q44.7-6.65 44.75-8.05L44.75-8.05Q42-9.35 40.2-9.35L40.2-9.35Q38.15-9.35 36.55-8.6 34.95-7.85 34.95-5.95L34.95-5.95Q34.95-5 35.75-4.35 36.55-3.7 37.4-3.7L37.4-3.7ZM68.4-12.85Q68.55-13.25 69.47-15.75 70.4-18.25 71.2-19.55L71.2-19.55Q72.5-21.6 73.5-21.6L73.5-21.6Q74.9-21.6 75.65-21.08 76.4-20.55 76.4-19.6L76.4-19.6Q76.4-19.15 76.02-18.35 75.65-17.55 75.59-17.4L75.59-17.4Q73.59-13 72-7.95L72-7.95 70.95-4.05Q70.34-2.15 68.9-0.98 67.45 0.2 65.5 0.2L65.5 0.2Q63.75 0.2 62.25-1.4L62.25-1.4Q61.35-2.8 60.37-4.95 59.4-7.1 58.7-9.15L58.7-9.15 56.95-14.4Q56.4-15.95 56.07-17.05 55.75-18.15 55.75-19.05L55.75-19.05Q55.7-20.1 56.35-20.75 57-21.4 58.15-21.4L58.15-21.4Q59.45-21.4 60-20.88 60.55-20.35 61-19.25L61-19.25Q61.2-18.1 62.1-14.55L62.1-14.55 62.45-13.15Q62.9-11.45 63.6-9.7 64.3-7.95 65-6.35L65-6.35Q64.9-6.6 65.7-4.7L65.7-4.7Q66.2-6.15 66.84-8.25L66.84-8.25 68.4-12.85ZM79.54-10.6Q79.54-12.5 80.24-14.43 80.94-16.35 82.09-17.95L82.09-17.95Q83.24-19.55 85.74-20.58 88.24-21.6 90.19-21.6L90.19-21.6Q92.19-21.6 94.27-21.05 96.34-20.5 97.14-19.35L97.14-19.35Q98.99-16.75 98.99-14.25L98.99-14.25Q98.99-12.9 98.42-11.95 97.84-11 96.79-9.9L96.79-9.9Q95.94-9 94.12-8.7 92.29-8.4 90.49-8.4L90.49-8.4Q89.34-8.4 87.69-8.63 86.04-8.85 84.49-9.2L84.49-9.2Q84.59-8.2 84.99-7.25 85.39-6.3 85.94-5.8L85.94-5.8Q86.94-4.85 88.02-4.6 89.09-4.35 90.79-4.35L90.79-4.35Q92.59-4.35 94.14-4.95L94.14-4.95Q95.39-5.4 96.19-5.4L96.19-5.4Q97.14-5.4 97.64-4.83 98.14-4.25 98.14-3.35L98.14-3.35Q98.14-2.1 96.69-1.3 95.24-0.5 93.37-0.13 91.49 0.25 90.34 0.25L90.34 0.25Q87.99 0.25 85.79-0.6 83.59-1.45 82.14-3L82.14-3Q80.94-4.4 80.24-6.38 79.54-8.35 79.54-10.6L79.54-10.6ZM90.44-17.35Q89.34-17.35 88.24-16.93 87.14-16.5 86.44-15.75L86.44-15.75Q85.54-14.8 85.22-14.23 84.89-13.65 84.79-12.65L84.79-12.65Q86.04-12.25 89.99-12.25L89.99-12.25Q92.14-12.25 93.32-12.9 94.49-13.55 94.49-14.6L94.49-14.6Q94.49-15.65 93.19-16.5 91.89-17.35 90.44-17.35L90.44-17.35Z" fill="#35185a" data-fill-palette-color="primary"></path><path d="M115.44-32.1Q117.19-31.95 118.49-31.18 119.79-30.4 119.79-28.85L119.79-28.85Q119.79-27.7 118.71-27.03 117.64-26.35 116.14-26.35L116.14-26.35Q114.69-26.35 114.14-27.1 113.59-27.85 113.59-28.65L113.59-28.65Q113.59-30.15 113.91-31.15 114.24-32.15 115.44-32.1L115.44-32.1ZM119.44-18.95L119.44-9.95 119.44-8.5Q119.44-6.55 119.56-4.83 119.69-3.1 119.89-1.35L119.89-1.35Q119.84-0.85 119.14-0.33 118.44 0.2 117.89 0.2L117.89 0.2Q116.94 0.2 115.96-0.18 114.99-0.55 114.79-1.1L114.79-1.1Q114.49-2.7 114.49-3.95L114.49-3.95Q114.49-8.05 114.24-13.15L114.24-13.15Q114.04-17.65 114.04-19.45L114.04-19.45Q114.04-20.35 114.94-21 115.84-21.65 116.84-21.65L116.84-21.65Q118.29-21.65 118.86-21 119.44-20.35 119.44-18.95L119.44-18.95ZM128.08-17.1L125.69-17.3Q124.98-17.4 124.56-17.9 124.13-18.4 124.13-19.1L124.13-19.1Q124.13-19.45 124.31-19.85 124.48-20.25 124.83-20.55L124.83-20.55Q125.48-21.2 128.33-21.2L128.33-21.2Q128.73-23.15 128.73-25.15L128.73-25.15Q128.73-25.9 128.69-26.45 128.63-27 128.63-27.3L128.63-27.3Q128.63-28.4 129.46-28.95 130.28-29.5 131.33-29.5L131.33-29.5Q132.63-29.5 133.11-28.85 133.58-28.2 133.58-26.45L133.58-26.45Q133.58-23.85 133.13-21.35L133.13-21.35Q133.94-21.35 135.33-21.45L135.33-21.45Q137.23-21.55 138.08-21.55L138.08-21.55Q138.94-21.55 139.56-21.13 140.19-20.7 140.19-19.95L140.19-19.95Q140.19-18 138.44-17.65L138.44-17.65Q136.58-17.2 132.69-17.1L132.69-17.1Q132.54-15.15 132.54-12.85L132.54-12.85Q132.54-9.25 132.98-6.95L132.98-6.95Q133.29-5.35 134.01-4.63 134.73-3.9 136.19-3.9L136.19-3.9Q137.04-3.9 137.94-4.35L137.94-4.35Q138.54-4.7 139.04-4.7L139.04-4.7Q139.73-4.7 140.06-4.25 140.38-3.8 140.38-3.05L140.38-3.05Q140.38-1.65 138.88-0.73 137.38 0.2 135.04 0.2L135.04 0.2Q133.58 0.2 132.11-0.5 130.63-1.2 129.63-2.25L129.63-2.25Q129.48-2.4 129.08-3.4 128.69-4.4 128.38-5.55L128.38-5.55Q127.88-7.9 127.88-12.15L127.88-12.15Q127.88-14 128.08-17.1L128.08-17.1Z" fill="#bb84e8" data-fill-palette-color="accent"></path></g></svg></g></svg></g><g transform="matrix(1,0,0,1,163.310208,112.65559233413327)"><svg viewBox="0 0 232.209792 25.701139125622575" height="25.701139125622575" width="232.209792"><g transform="matrix(1,0,0,1,0,0)"><svg width="232.209792" viewBox="-0.3 -36 451.7 50" height="25.701139125622575" data-palette-color="#35185a"><path d="M10.15 4.35L10.15 4.35Q7.45 4.35 5.05 3.38 2.65 2.4 1.18 0.4-0.3-1.6-0.3-4.6L-0.3-4.6Q-0.3-7.2 0.73-8.65 1.75-10.1 3.25-10.7 4.75-11.3 6.1-11.3L6.1-11.3Q4.75-9.85 4.05-8.1 3.35-6.35 3.35-4.6L3.35-4.6Q3.35-2.75 4.17-1.15 5 0.45 6.7 1.43 8.4 2.4 11 2.4L11 2.4Q13.25 2.4 15.4 1.58 17.55 0.75 18.93-0.88 20.3-2.5 20.3-4.9L20.3-4.9Q20.3-7.05 19.2-8.6 18.1-10.15 16.38-11.35 14.65-12.55 12.7-13.65 10.75-14.75 9.03-15.98 7.3-17.2 6.2-18.8 5.1-20.4 5.1-22.65L5.1-22.65Q5.1-24.75 6.1-27.05 7.1-29.35 8.97-31.4 10.85-33.45 13.48-34.73 16.1-36 19.35-36L19.35-36Q22.3-36 23.45-34.58 24.6-33.15 24.6-31L24.6-31Q24.6-29.2 23.98-27.13 23.35-25.05 22.45-23.18 21.55-21.3 20.75-20L20.75-20Q19.85-20.2 19.48-20.78 19.1-21.35 19.1-22.15L19.1-22.15Q19.1-23.2 19.55-24.55 20-25.9 20.58-27.35 21.15-28.8 21.6-30.18 22.05-31.55 22.05-32.65L22.05-32.65Q22.05-33.65 21.45-34.23 20.85-34.8 19.25-34.8L19.25-34.8Q16.9-34.8 14.9-33.7 12.9-32.6 11.4-30.88 9.9-29.15 9.08-27.25 8.25-25.35 8.25-23.8L8.25-23.8Q8.25-21.95 9.33-20.63 10.4-19.3 12.1-18.23 13.8-17.15 15.73-16.07 17.65-15 19.35-13.7 21.05-12.4 22.13-10.63 23.2-8.85 23.2-6.3L23.2-6.3Q23.2-3.7 22.05-1.73 20.9 0.25 18.98 1.6 17.05 2.95 14.75 3.65 12.45 4.35 10.15 4.35ZM29.2 2.35L29.2 2.35Q27.65 2.35 26.57 1.33 25.5 0.3 25.5-1.8L25.5-1.8Q25.5-3.6 26.3-5.68 27.1-7.75 28.5-9.78 29.9-11.8 31.67-13.48 33.45-15.15 35.42-16.15 37.4-17.15 39.35-17.15L39.35-17.15Q41.3-17.15 42.6-16.13 43.9-15.1 43.9-13.4L43.9-13.4Q43.9-12.15 43.22-11.7 42.55-11.25 41.45-11.25L41.45-11.25Q41.55-11.65 41.62-12.13 41.7-12.6 41.7-13L41.7-13Q41.7-14.15 41.15-14.98 40.6-15.8 39.25-15.8L39.25-15.8Q37.85-15.8 36.4-14.83 34.95-13.85 33.6-12.23 32.25-10.6 31.2-8.7 30.15-6.8 29.55-4.95 28.95-3.1 28.95-1.65L28.95-1.65Q28.95 0.3 30.3 0.3L30.3 0.3Q31.45 0.3 32.8-0.78 34.15-1.85 35.57-3.53 37-5.2 38.3-7 39.6-8.8 40.6-10.3L40.6-10.3Q40.8-10.6 40.85-10.6L40.85-10.6Q41.15-10.55 41.62-10.4 42.1-10.25 42.45-10 42.8-9.75 42.8-9.35L42.8-9.35Q42.8-8.9 42.35-8.13 41.9-7.35 41.35-6.35 40.8-5.35 40.35-4.33 39.9-3.3 39.9-2.4L39.9-2.4Q39.9-1.65 40.3-0.93 40.7-0.2 41.6-0.2L41.6-0.2Q42.95-0.2 45.15-2.18 47.35-4.15 49.6-8.1L49.6-8.1 50.1-7.6Q49.05-4.9 47.4-2.85 45.75-0.8 43.87 0.35 42 1.5 40.2 1.5L40.2 1.5Q38.35 1.5 37.47 0.4 36.6-0.7 36.6-2L36.6-2Q36.6-2.3 36.65-2.68 36.7-3.05 36.75-3.45L36.75-3.45Q34.6-0.55 32.82 0.9 31.05 2.35 29.2 2.35ZM51.84 1.95L51.84 1.95Q50.3 1.95 49.7 0.43 49.09-1.1 49.09-3.55L49.09-3.55Q49.09-3.65 49.14-5.13 49.2-6.6 49.39-10.1L49.39-10.1Q49.49-11.45 49.7-11.95 49.89-12.45 50.99-12.45L50.99-12.45Q51.84-12.45 52.07-12.13 52.3-11.8 52.3-10.85L52.3-10.85Q52.3-9.2 52.07-6.98 51.84-4.75 51.84-2.8L51.84-2.8Q51.84-1.35 52.09-0.68 52.34 0 52.99 0L52.99 0Q53.89 0 54.99-1.03 56.09-2.05 57.24-3.73 58.39-5.4 59.42-7.3 60.45-9.2 61.24-10.95L61.24-10.95Q61.34-14.35 61.97-15.48 62.59-16.6 63.55-16.6L63.55-16.6Q64.5-16.6 64.92-15.93 65.34-15.25 65.34-14.7L65.34-14.7Q65.34-14.05 64.92-13.35 64.5-12.65 64.05-11.45 63.59-10.25 63.59-8L63.59-8Q63.59-7.2 63.74-6.3 63.89-5.4 64.39-4.8 64.89-4.2 65.94-4.2L65.94-4.2Q67-4.2 67.97-5.03 68.94-5.85 69.89-7.9L69.89-7.9 70.55-7.4Q69.44-4.9 68.12-4.05 66.8-3.2 65.59-3.2L65.59-3.2Q63.95-3.2 62.84-4.4 61.74-5.6 61.39-8.05L61.39-8.05Q60.2-5.6 58.57-3.33 56.95-1.05 55.2 0.45 53.45 1.95 51.84 1.95ZM74.34 2.2L74.34 2.2Q71.29 2.2 69.77 0.53 68.24-1.15 68.24-3.6L68.24-3.6Q68.24-5.85 69.37-8.35 70.49-10.85 72.37-13.05 74.24-15.25 76.49-16.63 78.74-18 80.94-18L80.94-18Q82.09-18 83.07-17.4 84.04-16.8 84.04-14.95L84.04-14.95Q84.04-13.05 82.92-11.38 81.79-9.7 79.97-8.4 78.14-7.1 75.97-6.28 73.79-5.45 71.64-5.25L71.64-5.25Q71.54-4.75 71.49-4.3 71.44-3.85 71.44-3.45L71.44-3.45Q71.44-2.7 71.62-1.95 71.79-1.2 72.24-0.58 72.69 0.05 73.47 0.4 74.24 0.75 75.39 0.75L75.39 0.75Q77.54 0.75 79.64-0.48 81.74-1.7 83.54-3.7 85.34-5.7 86.59-8.1L86.59-8.1 87.19-7.65Q85.84-4.65 83.77-2.45 81.69-0.25 79.27 0.98 76.84 2.2 74.34 2.2ZM71.89-6.2L71.89-6.2Q73.24-6.65 74.94-7.53 76.64-8.4 78.22-9.6 79.79-10.8 80.82-12.25 81.84-13.7 81.84-15.3L81.84-15.3Q81.84-15.85 81.64-16.15 81.44-16.45 80.79-16.45L80.79-16.45Q79.59-16.45 78.24-15.53 76.89-14.6 75.64-13.1 74.39-11.6 73.39-9.8 72.39-8 71.89-6.2ZM111.34 9.35L111.34 9.35Q108.49 9.35 106.46 8.15 104.44 6.95 104.44 4.65L104.44 4.65Q104.44 3.35 105.16 2.38 105.89 1.4 107.44 0.9L107.44 0.9Q107.24 1.65 107.14 2.35 107.04 3.05 107.04 3.6L107.04 3.6Q107.04 5.65 108.14 6.88 109.24 8.1 111.39 8.1L111.39 8.1Q113.39 8.1 114.96 7.1 116.54 6.1 117.69 4.48 118.84 2.85 119.64 0.95 120.44-0.95 120.99-2.8 121.54-4.65 121.84-6.05L121.84-6.05Q122.24-7.75 122.76-10.48 123.29-13.2 123.94-16.3L123.94-16.3Q121.94-12.5 119.31-10.03 116.69-7.55 113.09-7.55L113.09-7.55Q110.14-7.55 108.89-9.22 107.64-10.9 107.64-13.5L107.64-13.5Q107.64-15.45 108.16-17.75 108.69-20.05 109.34-22.38 109.99-24.7 110.51-26.85 111.04-29 111.04-30.7L111.04-30.7Q111.04-32.3 110.41-33.45 109.79-34.6 108.19-34.6L108.19-34.6Q106.79-34.6 105.79-33.73 104.79-32.85 104.11-31.5 103.44-30.15 103.11-28.68 102.79-27.2 102.79-25.95L102.79-25.95Q102.79-25.25 102.89-24.6 102.99-23.95 103.19-23.5L103.19-23.5Q101.29-23.5 100.51-24.53 99.74-25.55 99.74-26.95L99.74-26.95Q99.74-28.5 100.49-30.1 101.24-31.7 102.56-33.02 103.89-34.35 105.61-35.18 107.34-36 109.29-36L109.29-36Q111.19-36 112.34-35.23 113.49-34.45 113.99-33.3 114.49-32.15 114.49-30.95L114.49-30.95Q114.49-29.55 113.96-27.48 113.44-25.4 112.79-23.1L112.79-23.1Q112.14-20.85 111.64-18.6 111.14-16.35 111.14-14.35L111.14-14.35Q111.14-12.2 111.96-10.88 112.79-9.55 114.64-9.55L114.64-9.55Q116.39-9.55 117.94-10.65 119.49-11.75 120.84-13.6 122.19-15.45 123.29-17.65 124.39-19.85 125.24-22L125.24-22Q125.89-24.7 126.61-27.23 127.34-29.75 128.09-31.73 128.84-33.7 129.64-34.85 130.44-36 131.24-36L131.24-36Q131.74-36 132.54-35.58 133.34-35.15 134.04-34.4L134.04-34.4Q132.99-32.75 132.24-31.28 131.49-29.8 130.81-28.05 130.14-26.3 129.44-23.93 128.74-21.55 127.86-18.1 126.99-14.65 125.79-9.7L125.79-9.7Q125.14-7.15 124.39-4.45 123.64-1.75 122.56 0.7 121.49 3.15 119.99 5.1 118.49 7.05 116.36 8.2 114.24 9.35 111.34 9.35ZM134.03 1.6L134.03 1.6Q131.89 1.6 130.99 0.28 130.09-1.05 130.09-2.95L130.09-2.95Q130.09-4.5 130.59-6.15 131.09-7.8 131.91-9.25 132.74-10.7 133.76-11.6 134.78-12.5 135.84-12.5L135.84-12.5Q136.09-12.5 136.36-12.43 136.64-12.35 136.89-12.25L136.89-12.25Q136.44-11.85 135.81-10.78 135.19-9.7 134.64-8.33 134.09-6.95 133.71-5.6 133.34-4.25 133.34-3.3L133.34-3.3Q133.34-1.8 133.84-1.13 134.34-0.45 135.14-0.45L135.14-0.45Q136.19-0.45 137.64-1.58 139.09-2.7 140.49-4.45L140.49-4.45Q139.09-5.6 138.31-7.48 137.53-9.35 137.53-11.3L137.53-11.3Q137.53-12.95 138.11-14.4 138.69-15.85 139.78-16.73 140.89-17.6 142.44-17.6L142.44-17.6Q144.49-17.6 145.19-16.5 145.89-15.4 145.89-13.75L145.89-13.75Q145.89-11.8 144.94-9.43 143.99-7.05 142.53-4.85L142.53-4.85Q143.44-4.35 144.44-4.35L144.44-4.35Q145.24-4.35 146.24-4.67 147.24-5 148.21-5.8 149.19-6.6 149.79-7.95L149.79-7.95 150.39-7.45Q149.39-5.1 147.56-4.13 145.74-3.15 144.09-3.15L144.09-3.15Q143.44-3.15 142.84-3.28 142.24-3.4 141.69-3.65L141.69-3.65Q139.99-1.4 137.96 0.1 135.94 1.6 134.03 1.6ZM141.39-5.75L141.39-5.75Q142.64-7.6 143.46-9.63 144.28-11.65 144.28-13.45L144.28-13.45Q144.28-14.9 143.86-15.58 143.44-16.25 142.78-16.25L142.78-16.25Q141.78-16.25 140.74-14.8 139.69-13.35 139.69-11.15L139.69-11.15Q139.69-9.7 140.11-8.22 140.53-6.75 141.39-5.75ZM152.58 1.5L152.58 1.5Q150.88 1.5 149.86-0.03 148.83-1.55 148.83-3.55L148.83-3.55Q148.83-5 149.31-6.9 149.78-8.8 150.48-10.65 151.18-12.5 151.93-13.7 152.68-14.9 153.23-14.9L153.23-14.9Q153.48-14.9 154.08-14.63 154.68-14.35 155.08-13.9L155.08-13.9Q154.53-13.05 153.73-11.3 152.93-9.55 152.33-7.55 151.73-5.55 151.73-3.85L151.73-3.85Q151.73-3.45 151.83-2.63 151.93-1.8 152.33-1.15 152.73-0.5 153.53-0.5L153.53-0.5Q154.48-0.5 155.48-1.48 156.48-2.45 157.51-4 158.53-5.55 159.48-7.35 160.43-9.15 161.26-10.8 162.08-12.45 162.63-13.55L162.63-13.55Q162.93-13.5 163.51-13.35 164.08-13.2 164.56-12.95 165.03-12.7 165.03-12.25L165.03-12.25Q165.03-12.05 164.53-10.93 164.03-9.8 163.36-8.18 162.68-6.55 162.18-4.9 161.68-3.25 161.68-2L161.68-2Q161.68-1.1 162.06-0.55 162.43 0 163.33 0L163.33 0Q164.38 0 165.88-0.95 167.38-1.9 168.93-3.73 170.48-5.55 171.68-8.1L171.68-8.1 172.33-7.65Q171.28-4.95 169.58-2.88 167.88-0.8 165.98 0.35 164.08 1.5 162.28 1.5L162.28 1.5Q160.98 1.5 160.21 1 159.43 0.5 159.11-0.35 158.78-1.2 158.78-2.2L158.78-2.2Q158.78-2.8 158.88-3.43 158.98-4.05 159.13-4.7L159.13-4.7Q158.23-3.05 157.18-1.63 156.13-0.2 154.98 0.65 153.83 1.5 152.58 1.5ZM179.38 1.3L179.38 1.3Q177.68 1.3 176.71 0.4 175.73-0.5 175.73-1.95L175.73-1.95Q175.73-3.45 176.43-5.1 177.13-6.75 177.81-8.38 178.48-10 178.48-11.3L178.48-11.3Q178.48-12.9 177.56-13.68 176.63-14.45 175.68-15.1L175.68-15.1Q174.53-12.15 173.28-9.5 172.03-6.85 171.23-5.5L171.23-5.5 170.78-6.35Q171.48-7.65 172.61-10.15 173.73-12.65 174.83-15.85L174.83-15.85Q174.33-16.35 174.33-17.05L174.33-17.05Q174.33-18.55 175.18-19.5 176.03-20.45 176.43-20.45L176.43-20.45Q176.98-20.45 177.06-19.98 177.13-19.5 177.13-19.25L177.13-19.25Q177.13-19 176.86-18.28 176.58-17.55 176.58-17.4L176.58-17.4Q176.58-16.7 177.36-16.13 178.13-15.55 179.13-14.83 180.13-14.1 180.91-13.08 181.68-12.05 181.68-10.45L181.68-10.45Q181.68-8.95 181.06-7.4 180.43-5.85 179.81-4.45 179.18-3.05 179.18-2L179.18-2Q179.18-1.1 179.63-0.8 180.08-0.5 180.68-0.5L180.68-0.5Q181.88-0.5 183.16-1.25 184.43-2 185.63-3.15 186.83-4.3 187.78-5.58 188.73-6.85 189.18-7.95L189.18-7.95 189.83-7.45Q188.88-5.35 187.23-3.33 185.58-1.3 183.56 0 181.53 1.3 179.38 1.3ZM209.28 4.35L209.28 4.35Q207.73 4.35 206.33 3.93 204.93 3.5 203.93 2.1L203.93 2.1Q204.43-0.3 205.15-3.08 205.88-5.85 206.73-8.78 207.58-11.7 208.45-14.53 209.33-17.35 210.13-19.8 210.93-22.25 211.58-24.1 212.23-25.95 212.58-26.9L212.58-26.9Q212.73-27.3 213.08-28.08 213.43-28.85 213.93-29.65 214.43-30.45 215.08-31.03 215.73-31.6 216.48-31.6L216.48-31.6Q217.18-31.6 217.88-31.1L217.88-31.1Q216.33-27.5 214.75-23.15 213.18-18.8 211.73-14.18 210.28-9.55 209.08-5.15 207.88-0.75 207.08 2.85L207.08 2.85Q207.78 2.95 208.25 3 208.73 3.05 209.23 3.05L209.23 3.05Q212.43 3.05 215.4 1.58 218.38 0.1 220.95-2.48 223.53-5.05 225.48-8.38 227.43-11.7 228.5-15.43 229.58-19.15 229.58-22.85L229.58-22.85Q229.58-26.9 228.28-29.53 226.98-32.15 224.68-33.4 222.38-34.65 219.33-34.65L219.33-34.65Q216.08-34.65 213.48-33.35 210.88-32.05 209.38-29.85 207.88-27.65 207.88-24.9L207.88-24.9Q207.88-24.3 207.95-23.85 208.03-23.4 208.13-23.05L208.13-23.05Q206.48-23.05 205.8-23.88 205.13-24.7 205.13-25.85L205.13-25.85Q205.13-27.6 206.35-29.38 207.58-31.15 209.75-32.65 211.93-34.15 214.78-35.08 217.63-36 220.83-36L220.83-36Q225.33-36 228.05-34.18 230.78-32.35 232.03-29.25 233.28-26.15 233.28-22.3L233.28-22.3Q233.28-17.95 231.93-13.98 230.58-10 228.2-6.68 225.83-3.35 222.78-0.88 219.73 1.6 216.25 2.98 212.78 4.35 209.28 4.35ZM235.67 2.35L235.67 2.35Q234.12 2.35 233.05 1.33 231.97 0.3 231.97-1.8L231.97-1.8Q231.97-3.6 232.77-5.68 233.57-7.75 234.97-9.78 236.37-11.8 238.15-13.48 239.92-15.15 241.9-16.15 243.87-17.15 245.82-17.15L245.82-17.15Q247.77-17.15 249.07-16.13 250.37-15.1 250.37-13.4L250.37-13.4Q250.37-12.15 249.7-11.7 249.02-11.25 247.92-11.25L247.92-11.25Q248.02-11.65 248.1-12.13 248.17-12.6 248.17-13L248.17-13Q248.17-14.15 247.62-14.98 247.07-15.8 245.72-15.8L245.72-15.8Q244.32-15.8 242.87-14.83 241.42-13.85 240.07-12.23 238.72-10.6 237.67-8.7 236.62-6.8 236.02-4.95 235.42-3.1 235.42-1.65L235.42-1.65Q235.42 0.3 236.77 0.3L236.77 0.3Q237.92 0.3 239.27-0.78 240.62-1.85 242.05-3.53 243.47-5.2 244.77-7 246.07-8.8 247.07-10.3L247.07-10.3Q247.27-10.6 247.32-10.6L247.32-10.6Q247.62-10.55 248.1-10.4 248.57-10.25 248.92-10 249.27-9.75 249.27-9.35L249.27-9.35Q249.27-8.9 248.82-8.13 248.37-7.35 247.82-6.35 247.27-5.35 246.82-4.33 246.37-3.3 246.37-2.4L246.37-2.4Q246.37-1.65 246.77-0.93 247.17-0.2 248.07-0.2L248.07-0.2Q249.42-0.2 251.62-2.18 253.82-4.15 256.07-8.1L256.07-8.1 256.57-7.6Q255.52-4.9 253.87-2.85 252.22-0.8 250.35 0.35 248.47 1.5 246.67 1.5L246.67 1.5Q244.82 1.5 243.95 0.4 243.07-0.7 243.07-2L243.07-2Q243.07-2.3 243.12-2.68 243.17-3.05 243.22-3.45L243.22-3.45Q241.07-0.55 239.3 0.9 237.52 2.35 235.67 2.35ZM258.67 1.3L258.67 1.3Q256.72 1.3 255.77 0.08 254.82-1.15 254.82-2.9L254.82-2.9Q254.82-4.05 255.25-5.8 255.67-7.55 256.37-9.47 257.07-11.4 258-13.1 258.92-14.8 259.97-15.88 261.02-16.95 262.02-16.95L262.02-16.95Q262.47-16.95 262.8-16.68 263.12-16.4 263.12-15.85L263.12-15.85Q263.12-15.25 262.35-13.9 261.57-12.55 260.52-10.8 259.47-9.05 258.7-7.13 257.92-5.2 257.92-3.45L257.92-3.45Q257.92-1.65 258.52-1.05 259.12-0.45 260.37-0.45L260.37-0.45Q262.07-0.45 264-2.15 265.92-3.85 268.07-8.1L268.07-8.1 268.52-7.6Q267.07-3.3 264.35-1 261.62 1.3 258.67 1.3ZM264.67-21.6L264.67-21.6Q263.87-21.6 263.25-22 262.62-22.4 262.62-23.25L262.62-23.25Q262.62-24.3 263.85-25.08 265.07-25.85 266.27-25.85L266.27-25.85Q267.02-25.85 267.47-25.5 267.92-25.15 267.92-24.3L267.92-24.3Q267.92-23.35 266.9-22.48 265.87-21.6 264.67-21.6ZM271.27 1.5L271.27 1.5Q269.12 1.5 268.19 0.03 267.27-1.45 267.27-3.65L267.27-3.65Q267.27-6.05 268.17-9.35 269.07-12.65 270.54-16.3 272.02-19.95 273.77-23.43 275.52-26.9 277.27-29.75 279.02-32.6 280.49-34.3 281.97-36 282.82-36L282.82-36Q283.37-36 283.72-35.38 284.07-34.75 284.27-33.88 284.47-33 284.47-32.3L284.47-32.3Q284.47-30.95 283.79-28.78 283.12-26.6 281.89-23.93 280.67-21.25 278.99-18.53 277.32-15.8 275.34-13.3 273.37-10.8 271.17-9L271.17-9Q270.87-7.65 270.69-6.38 270.52-5.1 270.52-3.95L270.52-3.95Q270.52-2 271.07-1.05 271.62-0.1 272.72-0.1L272.72-0.1Q274.07-0.1 275.39-1.3 276.72-2.5 277.89-4.33 279.07-6.15 279.92-8.1L279.92-8.1 280.67-7.7Q278.67-3.45 276.32-0.98 273.97 1.5 271.27 1.5ZM271.62-10.7L271.62-10.7Q273.37-12.45 275.02-14.73 276.67-17 278.09-19.45 279.52-21.9 280.62-24.2 281.72-26.5 282.32-28.33 282.92-30.15 282.92-31.15L282.92-31.15Q282.92-31.65 282.79-31.8 282.67-31.95 282.57-31.95L282.57-31.95Q282.17-31.95 281.19-30.68 280.22-29.4 278.92-27.25 277.62-25.1 276.27-22.35 274.92-19.6 273.69-16.6 272.47-13.6 271.62-10.7ZM281.07 14L281.07 14Q279.82 14 278.87 13.33 277.92 12.65 277.92 11.35L277.92 11.35Q277.92 9.75 278.72 8.5 279.52 7.25 280.87 6.2 282.22 5.15 283.97 4.2 285.72 3.25 287.62 2.3L287.62 2.3Q288.32 0.45 289.04-1.83 289.77-4.1 290.42-6.85L290.42-6.85Q288.82-4.25 286.99-2.38 285.17-0.5 283.12-0.5L283.12-0.5Q282.17-0.5 281.24-0.93 280.32-1.35 279.72-2.25 279.12-3.15 279.12-4.55L279.12-4.55Q279.12-5.95 279.59-7.8 280.07-9.65 280.77-11.4 281.47-13.15 282.22-14.3 282.97-15.45 283.52-15.45L283.52-15.45Q283.72-15.45 284.24-15.3 284.77-15.15 285.24-14.88 285.72-14.6 285.72-14.3L285.72-14.3Q285.27-13.65 284.72-12.45 284.17-11.25 283.64-9.78 283.12-8.3 282.77-6.9 282.42-5.5 282.42-4.5L282.42-4.5Q282.42-3.6 282.82-3.05 283.22-2.5 284.22-2.5L284.22-2.5Q285.17-2.5 286.34-3.43 287.52-4.35 288.69-5.8 289.87-7.25 290.87-8.9L290.87-8.9Q291.02-9.45 291.14-10.03 291.27-10.6 291.37-11.2L291.37-11.2Q291.52-11.9 292.09-12.83 292.67-13.75 293.92-13.75L293.92-13.75Q294.17-13.75 294.42-13.73 294.67-13.7 294.97-13.6L294.97-13.6Q294.97-12.8 294.49-10.63 294.02-8.45 293.14-5.55 292.27-2.65 291.07 0.4L291.07 0.4Q293.42-0.5 295.67-2.58 297.92-4.65 299.32-8.1L299.32-8.1 299.97-7.6Q299.22-5.2 297.69-3.43 296.17-1.65 294.27-0.38 292.37 0.9 290.52 1.75L290.52 1.75Q289.22 4.95 287.69 7.75 286.17 10.55 284.49 12.28 282.82 14 281.07 14ZM280.82 12.4L280.82 12.4Q281.57 12.4 283.34 10.43 285.12 8.45 287.12 3.5L287.12 3.5Q285.07 4.6 283.32 5.68 281.57 6.75 280.52 8 279.47 9.25 279.47 10.9L279.47 10.9Q279.47 11.3 279.77 11.85 280.07 12.4 280.82 12.4ZM319.51 4.35L319.51 4.35Q317.96 4.35 316.56 3.93 315.16 3.5 314.16 2.1L314.16 2.1Q314.66-0.3 315.39-3.08 316.11-5.85 316.96-8.78 317.81-11.7 318.69-14.53 319.56-17.35 320.36-19.8 321.16-22.25 321.81-24.1 322.46-25.95 322.81-26.9L322.81-26.9Q322.96-27.3 323.31-28.08 323.66-28.85 324.16-29.65 324.66-30.45 325.31-31.03 325.96-31.6 326.71-31.6L326.71-31.6Q327.41-31.6 328.11-31.1L328.11-31.1Q326.56-27.5 324.99-23.15 323.41-18.8 321.96-14.18 320.51-9.55 319.31-5.15 318.11-0.75 317.31 2.85L317.31 2.85Q318.01 2.95 318.49 3 318.96 3.05 319.46 3.05L319.46 3.05Q322.66 3.05 325.64 1.58 328.61 0.1 331.19-2.48 333.76-5.05 335.71-8.38 337.66-11.7 338.74-15.43 339.81-19.15 339.81-22.85L339.81-22.85Q339.81-26.9 338.51-29.53 337.21-32.15 334.91-33.4 332.61-34.65 329.56-34.65L329.56-34.65Q326.31-34.65 323.71-33.35 321.11-32.05 319.61-29.85 318.11-27.65 318.11-24.9L318.11-24.9Q318.11-24.3 318.19-23.85 318.26-23.4 318.36-23.05L318.36-23.05Q316.71-23.05 316.04-23.88 315.36-24.7 315.36-25.85L315.36-25.85Q315.36-27.6 316.59-29.38 317.81-31.15 319.99-32.65 322.16-34.15 325.01-35.08 327.86-36 331.06-36L331.06-36Q335.56-36 338.29-34.18 341.01-32.35 342.26-29.25 343.51-26.15 343.51-22.3L343.51-22.3Q343.51-17.95 342.16-13.98 340.81-10 338.44-6.68 336.06-3.35 333.01-0.88 329.96 1.6 326.49 2.98 323.01 4.35 319.51 4.35ZM346.86 1.6L346.86 1.6Q344.71 1.6 343.81 0.28 342.91-1.05 342.91-2.95L342.91-2.95Q342.91-4.5 343.41-6.15 343.91-7.8 344.73-9.25 345.56-10.7 346.58-11.6 347.61-12.5 348.66-12.5L348.66-12.5Q348.91-12.5 349.18-12.43 349.46-12.35 349.71-12.25L349.71-12.25Q349.26-11.85 348.63-10.78 348.01-9.7 347.46-8.33 346.91-6.95 346.53-5.6 346.16-4.25 346.16-3.3L346.16-3.3Q346.16-1.8 346.66-1.13 347.16-0.45 347.96-0.45L347.96-0.45Q349.01-0.45 350.46-1.58 351.91-2.7 353.31-4.45L353.31-4.45Q351.91-5.6 351.13-7.48 350.36-9.35 350.36-11.3L350.36-11.3Q350.36-12.95 350.93-14.4 351.51-15.85 352.61-16.73 353.71-17.6 355.26-17.6L355.26-17.6Q357.31-17.6 358.01-16.5 358.71-15.4 358.71-13.75L358.71-13.75Q358.71-11.8 357.76-9.43 356.81-7.05 355.36-4.85L355.36-4.85Q356.26-4.35 357.26-4.35L357.26-4.35Q358.06-4.35 359.06-4.67 360.06-5 361.03-5.8 362.01-6.6 362.61-7.95L362.61-7.95 363.21-7.45Q362.21-5.1 360.38-4.13 358.56-3.15 356.91-3.15L356.91-3.15Q356.26-3.15 355.66-3.28 355.06-3.4 354.51-3.65L354.51-3.65Q352.81-1.4 350.78 0.1 348.76 1.6 346.86 1.6ZM354.21-5.75L354.21-5.75Q355.46-7.6 356.28-9.63 357.11-11.65 357.11-13.45L357.11-13.45Q357.11-14.9 356.68-15.58 356.26-16.25 355.61-16.25L355.61-16.25Q354.61-16.25 353.56-14.8 352.51-13.35 352.51-11.15L352.51-11.15Q352.51-9.7 352.93-8.22 353.36-6.75 354.21-5.75ZM365.41 1.5L365.41 1.5Q363.71 1.5 362.68-0.03 361.66-1.55 361.66-3.55L361.66-3.55Q361.66-5 362.13-6.9 362.61-8.8 363.31-10.65 364.01-12.5 364.76-13.7 365.51-14.9 366.06-14.9L366.06-14.9Q366.31-14.9 366.91-14.63 367.51-14.35 367.91-13.9L367.91-13.9Q367.36-13.05 366.56-11.3 365.76-9.55 365.16-7.55 364.56-5.55 364.56-3.85L364.56-3.85Q364.56-3.45 364.66-2.63 364.76-1.8 365.16-1.15 365.56-0.5 366.36-0.5L366.36-0.5Q367.31-0.5 368.31-1.48 369.31-2.45 370.33-4 371.36-5.55 372.31-7.35 373.26-9.15 374.08-10.8 374.91-12.45 375.46-13.55L375.46-13.55Q375.76-13.5 376.33-13.35 376.91-13.2 377.38-12.95 377.86-12.7 377.86-12.25L377.86-12.25Q377.86-12.05 377.36-10.93 376.86-9.8 376.18-8.18 375.51-6.55 375.01-4.9 374.51-3.25 374.51-2L374.51-2Q374.51-1.1 374.88-0.55 375.26 0 376.16 0L376.16 0Q377.21 0 378.71-0.95 380.21-1.9 381.76-3.73 383.31-5.55 384.51-8.1L384.51-8.1 385.16-7.65Q384.11-4.95 382.41-2.88 380.71-0.8 378.81 0.35 376.91 1.5 375.11 1.5L375.11 1.5Q373.81 1.5 373.03 1 372.26 0.5 371.93-0.35 371.61-1.2 371.61-2.2L371.61-2.2Q371.61-2.8 371.71-3.43 371.81-4.05 371.96-4.7L371.96-4.7Q371.06-3.05 370.01-1.63 368.96-0.2 367.81 0.65 366.66 1.5 365.41 1.5ZM387.8 2.3L387.8 2.3Q385.65 2.3 384.5 1.05 383.35-0.2 383.35-2.65L383.35-2.65Q383.35-4.85 384.18-8.08 385-11.3 386.25-14.7L386.25-14.7Q385.75-14.8 385.3-14.88 384.85-14.95 384.45-15.1L384.45-15.1 384.45-16Q384.85-15.95 385.4-15.9 385.95-15.85 386.65-15.8L386.65-15.8Q387.7-18.5 388.9-21.03 390.1-23.55 391.28-25.53 392.45-27.5 393.53-28.68 394.6-29.85 395.35-29.85L395.35-29.85Q395.75-29.85 396.08-29.58 396.4-29.3 396.4-28.75L396.4-28.75Q396.4-27.9 395.35-25.98 394.3-24.05 392.75-21.4 391.2-18.75 389.75-15.65L389.75-15.65Q390.2-15.65 390.68-15.65 391.15-15.65 391.6-15.65L391.6-15.65Q393.25-15.65 395.08-15.7 396.9-15.75 398.75-15.95L398.75-15.95 398.75-15.05Q396-14.75 393.83-14.6 391.65-14.45 389.95-14.45L389.95-14.45Q389.75-14.45 389.58-14.45 389.4-14.45 389.2-14.45L389.2-14.45Q388.05-11.8 387.25-9 386.45-6.2 386.45-3.55L386.45-3.55Q386.45-1.4 387.1-0.48 387.75 0.45 389.25 0.45L389.25 0.45Q391.85 0.45 394.35-1.85 396.85-4.15 398.75-8.1L398.75-8.1 399.4-7.6Q398.2-4.8 396.38-2.55 394.55-0.3 392.35 1 390.15 2.3 387.8 2.3ZM401.4 1.3L401.4 1.3Q399.45 1.3 398.5 0.08 397.55-1.15 397.55-2.9L397.55-2.9Q397.55-4.05 397.98-5.8 398.4-7.55 399.1-9.47 399.8-11.4 400.73-13.1 401.65-14.8 402.7-15.88 403.75-16.95 404.75-16.95L404.75-16.95Q405.2-16.95 405.53-16.68 405.85-16.4 405.85-15.85L405.85-15.85Q405.85-15.25 405.07-13.9 404.3-12.55 403.25-10.8 402.2-9.05 401.43-7.13 400.65-5.2 400.65-3.45L400.65-3.45Q400.65-1.65 401.25-1.05 401.85-0.45 403.1-0.45L403.1-0.45Q404.8-0.45 406.73-2.15 408.65-3.85 410.8-8.1L410.8-8.1 411.25-7.6Q409.8-3.3 407.07-1 404.35 1.3 401.4 1.3ZM407.4-21.6L407.4-21.6Q406.6-21.6 405.98-22 405.35-22.4 405.35-23.25L405.35-23.25Q405.35-24.3 406.57-25.08 407.8-25.85 409-25.85L409-25.85Q409.75-25.85 410.2-25.5 410.65-25.15 410.65-24.3L410.65-24.3Q410.65-23.35 409.63-22.48 408.6-21.6 407.4-21.6ZM426 1L426 1Q424.25 1 423.37 0.1 422.5-0.8 422.5-2.2L422.5-2.2Q422.5-3.25 422.87-4.4 423.25-5.55 423.6-6.78 423.95-8 423.95-9.15L423.95-9.15Q423.95-10.55 423.37-11.08 422.8-11.6 421.95-11.6L421.95-11.6Q420.4-11.6 418.8-10.33 417.2-9.05 415.7-7.08 414.2-5.1 412.9-3 411.6-0.9 410.6 0.75L410.6 0.75Q409.8 0.75 409.07 0.48 408.35 0.2 407.95-0.35L407.95-0.35Q407.95-0.6 408.47-1.9 409-3.2 409.7-5.1 410.4-7 410.95-9 411.5-11 411.5-12.65L411.5-12.65Q411.8-13 412.45-13.35 413.1-13.7 413.8-13.7L413.8-13.7Q415.15-13.7 415.15-12.4L415.15-12.4Q415.15-11.6 414.7-9.73 414.25-7.85 413.55-5.8L413.55-5.8Q414.9-7.85 416.57-9.88 418.25-11.9 420.15-13.25 422.05-14.6 423.95-14.6L423.95-14.6Q425.9-14.6 426.77-13.2 427.65-11.8 427.65-10.1L427.65-10.1Q427.65-8.55 427.15-7.23 426.65-5.9 426.12-4.67 425.6-3.45 425.6-2.2L425.6-2.2Q425.6-1.15 426.02-0.73 426.45-0.3 427.1-0.3L427.1-0.3Q428.35-0.3 429.6-1.48 430.85-2.65 432.02-4.45 433.2-6.25 434.1-8.1L434.1-8.1 434.65-7.45Q433.6-5 432.3-3.1 431-1.2 429.45-0.1 427.9 1 426 1ZM438.55 2.2L438.55 2.2Q435.5 2.2 433.97 0.53 432.45-1.15 432.45-3.6L432.45-3.6Q432.45-5.85 433.57-8.35 434.7-10.85 436.57-13.05 438.45-15.25 440.7-16.63 442.95-18 445.15-18L445.15-18Q446.3-18 447.27-17.4 448.25-16.8 448.25-14.95L448.25-14.95Q448.25-13.05 447.12-11.38 446-9.7 444.17-8.4 442.35-7.1 440.17-6.28 438-5.45 435.85-5.25L435.85-5.25Q435.75-4.75 435.7-4.3 435.65-3.85 435.65-3.45L435.65-3.45Q435.65-2.7 435.82-1.95 436-1.2 436.45-0.58 436.9 0.05 437.67 0.4 438.45 0.75 439.6 0.75L439.6 0.75Q441.75 0.75 443.85-0.48 445.95-1.7 447.75-3.7 449.55-5.7 450.8-8.1L450.8-8.1 451.4-7.65Q450.05-4.65 447.97-2.45 445.9-0.25 443.47 0.98 441.05 2.2 438.55 2.2ZM436.1-6.2L436.1-6.2Q437.45-6.65 439.15-7.53 440.85-8.4 442.42-9.6 444-10.8 445.02-12.25 446.05-13.7 446.05-15.3L446.05-15.3Q446.05-15.85 445.85-16.15 445.65-16.45 445-16.45L445-16.45Q443.8-16.45 442.45-15.53 441.1-14.6 439.85-13.1 438.6-11.6 437.6-9.8 436.6-8 436.1-6.2Z" opacity="1" transform="matrix(1,0,0,1,0,0)" fill="#35185a" class="slogan-text-1" data-fill-palette-color="secondary" id="text-1"></path></svg></g></svg></g></svg></g></svg></g><g transform="matrix(1,0,0,1,446.7708622520048,0)"><svg viewBox="0 0 239.68106965955872 191.2090028773826" height="191.2090028773826" width="239.68106965955872"><g><svg xmlns="http://www.w3.org/2000/svg" xmlns:xlink="http://www.w3.org/1999/xlink" version="1.0" x="0" y="0" viewBox="24.46076951545867 29.662499999999994 50.939230484541326 40.6375" enable-background="new 0 0 100 100" xml:space="preserve" height="191.2090028773826" width="239.68106965955872" class="icon-icon-0" data-fill-palette-color="accent" id="icon-0"><path d="M73.8 70.3H36.4c-0.9 0-1.6-0.7-1.6-1.6V41c0-0.9 0.7-1.6 1.6-1.6h37.4c0.9 0 1.6 0.7 1.6 1.6v27.8C75.4 69.6 74.7 70.3 73.8 70.3zM38 67.1h34.2V42.6H38V67.1z" fill="#bb84e8" data-fill-palette-color="accent"></path><path d="M49.6 58.6h-8.1c-0.9 0-1.6-0.7-1.6-1.6v-9.5c0-0.9 0.7-1.6 1.6-1.6h8.1c0.9 0 1.6 0.7 1.6 1.6V57C51.2 57.9 50.5 58.6 49.6 58.6zM43.1 55.4H48v-6.3h-4.9V55.4z" fill="#bb84e8" data-fill-palette-color="accent"></path><path d="M68.4 49.1H54.2c-0.9 0-1.6-0.7-1.6-1.6s0.7-1.6 1.6-1.6h14.2c0.9 0 1.6 0.7 1.6 1.6S69.3 49.1 68.4 49.1z" fill="#bb84e8" data-fill-palette-color="accent"></path><path d="M68.4 53.7H54.2c-0.9 0-1.6-0.7-1.6-1.6s0.7-1.6 1.6-1.6h14.2c0.9 0 1.6 0.7 1.6 1.6S69.3 53.7 68.4 53.7z" fill="#bb84e8" data-fill-palette-color="accent"></path><path d="M68.4 58.5H54.2c-0.9 0-1.6-0.7-1.6-1.6s0.7-1.6 1.6-1.6h14.2c0.9 0 1.6 0.7 1.6 1.6S69.3 58.5 68.4 58.5z" fill="#bb84e8" data-fill-palette-color="accent"></path><path d="M68.4 63.9H41.6c-0.9 0-1.6-0.7-1.6-1.6s0.7-1.6 1.6-1.6h26.9c0.9 0 1.6 0.7 1.6 1.6S69.3 63.9 68.4 63.9z" fill="#bb84e8" data-fill-palette-color="accent"></path><path d="M36.9 70.3C36.9 70.3 36.9 70.3 36.9 70.3l-4.3 0c-0.8 0-1.4-0.5-1.6-1.3l-6.5-30.9c-0.1-0.4 0-0.9 0.2-1.2 0.2-0.4 0.6-0.6 1.1-0.7l36.9-6.5c0.4-0.1 0.9 0 1.2 0.3 0.4 0.2 0.6 0.6 0.7 1l1.7 9.6c0.2 0.9-0.4 1.7-1.3 1.9-0.9 0.2-1.7-0.4-1.9-1.3l-1.4-8-33.6 5.9 5.9 28 3 0c0.9 0 1.6 0.7 1.6 1.6C38.6 69.6 37.8 70.3 36.9 70.3z" fill="#bb84e8" data-fill-palette-color="accent"></path></svg></g></svg></g></svg></g><defs></defs></svg><rect width="395.52" height="110.17083833891152" fill="none" stroke="none" visibility="hidden"></rect></g></svg></g></svg>